# xmcd
#
# Track frame offsets:
#	150
#	18428
#	40516
#	61121
#	81053
#	101226
#	117376
#	138799
#	158181
#	175595
#	193654
#	197801
#	216574
#	235831
#	253705
#	271565
#	289449
#	290793
#	291952
#	294790
#	297537
#	299727
#
# Disc length: 4256 seconds
#
# Revision: 0
# Processed by: cddbd v1.5.2PL0 Copyright (c) Steve Scherf et al.
# Submitted via: dBpowerAMP V4.0
#
DISCID=61109e16
DTITLE=Brad Paisley - Time Well Wasted
DYEAR=2005
DGENRE=Country
TTITLE0=The World
TTITLE1=Alcohol
TTITLE2=Waitin' On A Woman
TTITLE3=I'll Take You Back
TTITLE4=She's Everything
TTITLE5=You Need A Man Around Here
TTITLE6=Out In The Parkin' Lot (Featuring Alan Jackson)
TTITLE7=Rainin' You
TTITLE8=Flowers
TTITLE9=Love Is Never-Ending
TTITLE10=The Uncloudy Day
TTITLE11=When I Get Where I'm Going (Featuring Dolly Parton)
TTITLE12=Easy Money
TTITLE13=Time Warp
TTITLE14=Time Well Wasted
TTITLE15=Cornography (Featuring James Burton and The Kung Pao Buckaroos)
TTITLE16=Outtake 1
TTITLE17=Outtake 2
TTITLE18=Outtake 3
TTITLE19=Outtake 4
TTITLE20=Shatner Says Goodbye
TTITLE21=Whiskey Lullaby
EXTD=
EXTT0=
EXTT1=
EXTT2=
EXTT3=
EXTT4=
EXTT5=
EXTT6=
EXTT7=
EXTT8=
EXTT9=
EXTT10=
EXTT11=
EXTT12=
EXTT13=
EXTT14=
EXTT15=
EXTT16=
EXTT17=
EXTT18=
EXTT19=
EXTT20=
EXTT21=
PLAYORDER=
